<svg width="48" height="48" viewBox="0 0 48 48" fill="none" xmlns="http://www.w3.org/2000/svg">
<g id="App=Discord, State=Default, Size=Large">
<g id="Discord">
<path id="Subtract" fill-rule="evenodd" clip-rule="evenodd" d="M24 0C10.7452 0 0 10.7452 0 24C0 37.2548 10.7452 48 24 48C37.2548 48 48 37.2548 48 24C48 10.7452 37.2548 0 24 0ZM28.4037 12.9908C31.1927 13.1376 33.8349 14.0183 36.0367 15.7798C38.5321 20.4771 39.8532 25.7615 40 31.1926C37.7982 33.5413 34.7156 35.0092 31.4862 35.0092C31.4862 35.0092 30.4587 33.8349 29.7248 32.8073C31.633 32.367 33.3945 31.3394 34.5688 29.7248C33.5413 30.3119 32.5138 30.8991 31.4862 31.3394C30.1651 31.9266 28.844 32.2202 27.5229 32.5138L27.5228 32.5138C26.3486 32.6605 25.1743 32.8073 24 32.8073C22.8257 32.8073 21.6514 32.6605 20.4772 32.5138L20.4771 32.5138C19.156 32.2202 17.8349 31.9266 16.5138 31.3394C15.4862 30.8991 14.4587 30.3119 13.4312 29.7248C14.6055 31.3394 16.367 32.367 18.2752 32.8073C17.5413 33.8349 16.5138 35.0092 16.5138 35.0092C13.2844 35.0092 10.2018 33.5413 8 31.1926C8.14679 25.7615 9.46789 20.4771 11.9633 15.7798C14.1651 14.0183 16.8073 13.1376 19.5963 12.9908L20.0367 13.4312C17.5413 14.0183 15.3394 15.1926 13.2844 16.8073C15.7798 15.4862 18.5688 14.6055 21.5046 14.3119C22.3853 14.1651 23.1193 14.1651 24 14.1651C24.8807 14.1651 25.6147 14.1651 26.4954 14.3119C29.4312 14.6055 32.2202 15.4862 34.7156 16.8073C32.6606 15.1926 30.4587 14.0183 27.9633 13.4312L28.4037 12.9908ZM16.367 25.6147C16.367 27.2293 17.6881 28.5504 19.156 28.5504C20.6239 28.5504 21.945 27.2293 21.945 25.6147C21.945 24 20.6239 22.6789 19.156 22.6789C17.6881 22.6789 16.367 24 16.367 25.6147ZM26.055 25.6147C26.055 27.2293 27.3761 28.5504 28.844 28.5504C30.3119 28.5504 31.633 27.2293 31.633 25.6147C31.633 24 30.3119 22.6789 28.844 22.6789C27.3761 22.6789 26.055 24 26.055 25.6147Z" fill="white"/>
</g>
</g>
</svg>
