<svg width="48" height="48" viewBox="0 0 48 48" fill="none" xmlns="http://www.w3.org/2000/svg">
<g id="App=GitHub, State=Default, Size=Large">
<g id="GitHub">
<path id="Subtract" fill-rule="evenodd" clip-rule="evenodd" d="M24 0C10.7452 0 0 10.7452 0 24C0 37.0477 10.412 47.6636 23.3805 47.9922C21.0102 47.932 18.7248 47.5276 16.5727 46.8272C17.6532 46.9567 18.0524 46.2532 18.0524 45.6458C18.0524 45.3816 18.0479 44.9156 18.0419 44.2923L18.0419 44.2911C18.0349 43.5692 18.0259 42.6364 18.0194 41.5615C11.3429 43.0129 9.93444 38.3418 9.93444 38.3418C8.84394 35.568 7.27044 34.8294 7.27044 34.8294C5.09094 33.3388 7.43544 33.369 7.43544 33.369C9.84294 33.5387 11.1104 35.8442 11.1104 35.8442C13.2524 39.5144 16.7279 38.4547 18.0959 37.8391C18.3134 36.2871 18.9344 35.2286 19.6199 34.6283C14.2904 34.022 8.68794 31.9625 8.68794 22.7597C8.68794 20.1373 9.62244 17.994 11.1584 16.3142C10.9109 15.7065 10.0874 13.2657 11.3924 9.95888C11.3924 9.95888 13.4084 9.31336 17.9924 12.4206C19.9079 11.8876 21.9599 11.6222 24.0014 11.6114C26.0399 11.6218 28.0934 11.8876 30.0104 12.4206C34.5914 9.31336 36.6029 9.95888 36.6029 9.95888C37.9124 13.2657 37.0889 15.7065 36.8414 16.3142C38.3804 17.994 39.3089 20.1373 39.3089 22.7597C39.3089 31.9849 33.6974 34.0161 28.3514 34.6104C29.2124 35.3519 29.9804 36.8168 29.9804 39.058C29.9804 41.2047 29.967 43.0736 29.9581 44.3121V44.3125L29.9581 44.3133C29.9537 44.9266 29.9504 45.3851 29.9504 45.6462C29.9504 46.2564 30.34 46.9613 31.4224 46.8287C29.3375 47.5068 27.1275 47.9071 24.8363 47.9857C37.7039 47.545 48 36.9749 48 24C48 10.7452 37.2548 0 24 0Z" fill="white"/>
</g>
</g>
</svg>
