<svg width="48" height="48" viewBox="0 0 48 48" fill="none" xmlns="http://www.w3.org/2000/svg">
<g id="App=Telegram, State=Default, Size=Large">
<g id="Telegram">
<path id="Subtract" fill-rule="evenodd" clip-rule="evenodd" d="M24 0C10.7452 0 0 10.7452 0 24C0 37.2548 10.7452 48 24 48C37.2548 48 48 37.2548 48 24C48 10.7452 37.2548 0 24 0ZM24.7493 17.3305C22.4206 18.3195 17.7667 20.3663 10.7874 23.4709C9.65403 23.9311 9.06035 24.3813 9.0063 24.8215C8.91496 25.5654 9.82737 25.8583 11.0698 26.2572C11.2388 26.3115 11.4139 26.3677 11.5935 26.4273C12.8159 26.833 14.4602 27.3076 15.315 27.3264C16.0904 27.3435 16.9558 27.0172 17.9113 26.3473C24.4323 21.8529 27.7985 19.5812 28.0098 19.5322C28.1589 19.4977 28.3655 19.4543 28.5055 19.5813C28.6455 19.7083 28.6317 19.9489 28.6169 20.0135C28.5265 20.4069 24.945 23.8066 23.0915 25.5659C22.5137 26.1144 22.1039 26.5035 22.0201 26.5923C21.8324 26.7913 21.6411 26.9796 21.4573 27.1606C20.3216 28.2783 19.47 29.1166 21.5044 30.4854C22.4821 31.1432 23.2644 31.6871 24.0448 32.2298C24.8972 32.8224 25.7473 33.4135 26.8473 34.1497C27.1275 34.3373 27.3951 34.5321 27.6558 34.7218C28.6478 35.4439 29.5389 36.0925 30.6399 35.9891C31.2796 35.929 31.9404 35.3148 32.276 33.483C33.0692 29.1539 34.6281 19.774 34.9884 15.9088C35.02 15.5702 34.9803 15.1368 34.9484 14.9465C34.9165 14.7563 34.8499 14.4852 34.6077 14.2845C34.3208 14.0469 33.878 13.9968 33.68 14.0002C32.7795 14.0165 31.3979 14.507 24.7493 17.3305Z" fill="white"/>
</g>
</g>
</svg>
