<svg width="48" height="48" viewBox="0 0 48 48" fill="none" xmlns="http://www.w3.org/2000/svg">
<g id="App=Twitter, State=Default, Size=Large">
<g id="Twitter">
<path id="Subtract" fill-rule="evenodd" clip-rule="evenodd" d="M24 0C10.7452 0 0 10.7452 0 24C0 37.2548 10.7452 48 24 48C37.2548 48 48 37.2548 48 24C48 10.7452 37.2548 0 24 0ZM35.7625 19.5625V18.8125C36.925 17.9875 37.9 16.9375 38.65 15.7375C37.6 16.225 36.475 16.525 35.275 16.675C36.475 15.925 37.4125 14.8 37.8625 13.4125C36.7 14.0875 35.4625 14.575 34.1125 14.8375C33.0625 13.7125 31.525 13 29.8375 13C26.575 13 23.95 15.625 23.95 18.8875C23.95 19.3375 23.9875 19.825 24.1 20.2375C19.225 19.975 14.875 17.65 11.9875 14.0875C11.5 14.95 11.2 15.9625 11.2 17.05C11.2 19.1125 12.25 20.9125 13.825 21.9625C12.85 21.925 11.95 21.6625 11.1625 21.2125V21.2875C11.1625 24.1375 13.1875 26.5 15.8875 27.025C15.4 27.175 14.875 27.25 14.35 27.25C13.9375 27.25 13.6 27.2125 13.225 27.1375C13.9375 29.4625 16.1125 31.1875 18.7 31.225C16.675 32.8 14.125 33.7375 11.3875 33.7375C10.9375 33.7375 10.45 33.7 10 33.6625C12.625 35.3125 15.7 36.2875 19.0375 36.2875C29.8375 36.2875 35.7625 27.325 35.7625 19.5625Z" fill="white"/>
</g>
</g>
</svg>
