<svg width="48" height="48" viewBox="0 0 48 48" fill="none" xmlns="http://www.w3.org/2000/svg">
<g id="App=WeChat, State=Default, Size=Large">
<g id="WeChat">
<path id="Subtract" fill-rule="evenodd" clip-rule="evenodd" d="M24 0C10.7452 0 0 10.7452 0 24C0 37.2548 10.7452 48 24 48C37.2548 48 48 37.2548 48 24C48 10.7452 37.2548 0 24 0ZM41 28.2097C41 30.781 39.6202 33.0956 37.4616 34.6601C37.3729 34.7232 37.3006 34.8066 37.2507 34.9034C37.2009 35.0001 37.1749 35.1074 37.175 35.2163C37.175 35.292 37.1911 35.3618 37.2109 35.4337C37.3828 36.0768 37.6592 37.1071 37.6723 37.1553C37.6776 37.1753 37.6836 37.1956 37.6897 37.2161C37.7082 37.2779 37.7271 37.3414 37.7271 37.4044C37.7271 37.4493 37.7184 37.4937 37.7012 37.5352C37.6841 37.5766 37.659 37.6143 37.6273 37.646C37.5956 37.6778 37.558 37.7029 37.5165 37.7201C37.4751 37.7373 37.4307 37.7461 37.3858 37.7461C37.3116 37.7461 37.2511 37.7186 37.1885 37.6824L34.9465 36.3883C34.7783 36.2906 34.5993 36.2309 34.4031 36.2309C34.301 36.2308 34.1994 36.2459 34.1017 36.2757C33.0558 36.5766 31.9277 36.7434 30.759 36.7434C25.1032 36.7434 20.5183 32.923 20.5183 28.2097C20.5183 23.4962 25.1032 19.6756 30.759 19.6756C36.4148 19.6756 41 23.4962 41 28.2097ZM25.9802 25.4788C25.9802 26.2332 26.5916 26.8444 27.345 26.8444V26.8445C28.0997 26.8445 28.7107 26.2331 28.7107 25.4788C28.7107 24.7246 28.0997 24.1132 27.345 24.1132C26.5916 24.1132 25.9802 24.7246 25.9802 25.4788ZM32.8072 25.4788C32.8072 26.2331 33.4186 26.8445 34.1725 26.8445C34.9268 26.8445 35.5378 26.2331 35.5378 25.4788C35.5378 24.7246 34.9268 24.1132 34.1725 24.1132C33.4186 24.1132 32.8072 24.7246 32.8072 25.4788ZM31.4265 18.8875C30.501 13.9953 25.4199 10.2539 19.289 10.2539C12.5017 10.2539 7 14.8391 7 20.495C7 23.5806 8.65513 26.3581 11.2462 28.2353C11.3526 28.311 11.4394 28.4112 11.4992 28.5273C11.559 28.6435 11.5901 28.7723 11.59 28.9029C11.59 28.9936 11.5703 29.0771 11.5468 29.1641L10.9933 31.2295C10.9869 31.2536 10.9796 31.278 10.9722 31.3026C10.95 31.3768 10.9272 31.4528 10.9272 31.529C10.9271 31.5828 10.9377 31.6361 10.9583 31.6858C10.9788 31.7355 11.009 31.7807 11.0471 31.8187C11.0851 31.8568 11.1303 31.8869 11.18 31.9075C11.2297 31.9281 11.283 31.9386 11.3368 31.9386C11.4256 31.9386 11.4987 31.9054 11.5736 31.8622L14.264 30.3088C14.4665 30.1921 14.6806 30.1201 14.9164 30.1201C15.0388 30.12 15.1607 30.1383 15.2778 30.1742C16.5331 30.5349 17.8867 30.7356 19.289 30.7356C19.5157 30.7356 19.7403 30.7296 19.9642 30.7196C19.697 29.9209 19.5512 29.0794 19.5512 28.2094C19.5512 23.0516 24.5691 18.8697 30.7591 18.8697C30.9817 18.8702 31.2042 18.8761 31.4265 18.8875ZM16.8311 17.2176C16.8311 18.1229 16.0978 18.8563 15.1923 18.8563C14.2877 18.8563 13.5541 18.1229 13.5541 17.2176C13.5541 16.3126 14.2878 15.5792 15.1923 15.5792C16.0978 15.5792 16.8311 16.3126 16.8311 17.2176ZM25.0242 17.2176C25.0242 18.1229 24.2904 18.8563 23.3855 18.8563C22.4802 18.8563 21.7469 18.1229 21.7469 17.2176C21.7469 16.3126 22.4802 15.5792 23.3855 15.5792C24.2905 15.5792 25.0242 16.3126 25.0242 17.2176Z" fill="white"/>
</g>
</g>
</svg>
