<svg width="48" height="48" viewBox="0 0 48 48" fill="none" xmlns="http://www.w3.org/2000/svg">
<g id="App=YouTube, State=Default, Size=Large">
<g id="YouTube">
<path id="Subtract" fill-rule="evenodd" clip-rule="evenodd" d="M24 0C10.7452 0 0 10.7452 0 24C0 37.2548 10.7452 48 24 48C37.2548 48 48 37.2548 48 24C48 10.7452 37.2548 0 24 0ZM38.3821 16.7842C38.0361 15.4992 37.0229 14.486 35.7379 14.1401C33.3903 13.4976 23.9999 13.4976 23.9999 13.4976C23.9999 13.4976 14.6095 13.4976 12.2619 14.1153C11.0016 14.4613 9.96375 15.4992 9.61779 16.7842C9 19.1318 9 24 9 24C9 24 9 28.8929 9.61779 31.2158C9.96375 32.5008 10.9769 33.5139 12.2619 33.8599C14.6342 34.5024 23.9999 34.5024 23.9999 34.5024C23.9999 34.5024 33.3903 34.5024 35.7379 33.8846C37.0229 33.5387 38.0361 32.5255 38.3821 31.2405C38.9999 28.8929 38.9999 24.0247 38.9999 24.0247C38.9999 24.0247 39.0246 19.1318 38.3821 16.7842ZM21.0098 28.4975L28.8187 24L21.0098 19.5025V28.4975Z" fill="white"/>
</g>
</g>
</svg>
