<svg width="50" height="50" viewBox="0 0 50 50" fill="none" xmlns="http://www.w3.org/2000/svg">
<path fill-rule="evenodd" clip-rule="evenodd" d="M25 50C38.8071 50 50 38.8071 50 25C50 11.1929 38.8071 0 25 0C11.1929 0 0 11.1929 0 25C0 38.8071 11.1929 50 25 50ZM21.8615 7.14286C16.4161 7.14286 8.92857 27.381 8.92857 27.381V27.8443V36.0544L13.4821 37.5L15 36.0544V29.3622L27.8178 32.5666V40.4369L34.1141 42.011L35.6882 38.8628V30.8508L37.2619 27.5623V29.4048H39.2857V23.3333C39.2857 23.3333 38.5176 7.14286 35.2381 7.14286C33.7939 7.14286 32.4879 12.1253 31.4785 17.7019C28.9634 13.028 25.1446 7.14286 21.8615 7.14286ZM35.2381 10.1786C36.9196 10.1786 37.2619 23.3333 37.2619 23.3333L34.2262 23.3333C34.2262 23.3333 34.1608 23.1804 34.0378 22.9043C34.094 16.6761 34.3625 10.1786 35.2381 10.1786ZM18.5476 26.0576L17.0238 26.3407V16.8796C17.4754 15.452 17.9836 14.1064 18.5476 12.9803V26.0576ZM16.5238 18.5704V26.4335L14.7482 26.7634C15.0983 24.69 15.6926 21.5703 16.5238 18.5704ZM21.0714 25.5888L22.5952 25.3058V9.91038C22.3499 9.84723 22.1051 9.81401 21.8615 9.81401C21.591 9.81401 21.3277 9.87269 21.0714 9.98359V25.5888ZM24.619 24.9299L23.0952 25.2129V10.0792C23.6051 10.2914 24.1152 10.6227 24.619 11.0438V24.9299ZM25.119 24.837L26.6429 24.554V13.2108C26.1489 12.5734 25.6385 11.9895 25.119 11.4923V24.837ZM28.6667 24.178L27.1429 24.4611V13.8812C27.6773 14.6244 28.1886 15.4195 28.6667 16.2213V24.178ZM29.1667 24.0852L30.4987 23.8377C30.6484 22.7857 30.8113 21.6957 30.9864 20.5998C30.4954 19.5667 29.8761 18.3363 29.1667 17.0825V24.0852ZM20.5714 25.6817V10.271C20.0288 10.6608 19.5207 11.2824 19.0476 12.0671V25.9647L20.5714 25.6817Z" fill="#1D8AED"/>
</svg>
