<svg width="23" height="24" viewBox="0 0 23 24" fill="none" xmlns="http://www.w3.org/2000/svg">
<path fill-rule="evenodd" clip-rule="evenodd" d="M12.0208 8.09188C11.6303 8.4824 10.9971 8.4824 10.6066 8.09188L7.77817 5.26345C7.38765 4.87293 6.75449 4.87293 6.36396 5.26345L4.94975 6.67766C4.55922 7.06819 4.55922 7.70135 4.94975 8.09188L7.77817 10.9203C8.1687 11.3108 8.1687 11.944 7.77817 12.3345L4.94975 15.1629C4.55922 15.5535 4.55922 16.1866 4.94975 16.5772L6.36396 17.9914C6.75449 18.3819 7.38765 18.3819 7.77817 17.9914L10.6066 15.1629C10.9971 14.7724 11.6303 14.7724 12.0208 15.1629L14.8492 17.9914C15.2398 18.3819 15.8729 18.3819 16.2635 17.9914L17.6777 16.5772C18.0682 16.1866 18.0682 15.5535 17.6777 15.1629L14.8492 12.3345C14.4587 11.944 14.4587 11.3108 14.8492 10.9203L17.6777 8.09188C18.0682 7.70135 18.0682 7.06819 17.6777 6.67766L16.2635 5.26345C15.8729 4.87293 15.2398 4.87293 14.8492 5.26345L12.0208 8.09188Z" fill="white"/>
</svg>
