<svg width="23" height="23" viewBox="0 0 23 23" fill="none" xmlns="http://www.w3.org/2000/svg">
<path fill-rule="evenodd" clip-rule="evenodd" d="M12.0208 7.46447C11.6303 7.85499 10.9971 7.85499 10.6066 7.46447L7.77817 4.63604C7.38765 4.24551 6.75449 4.24551 6.36396 4.63604L4.94975 6.05025C4.55922 6.44078 4.55922 7.07394 4.94975 7.46447L7.77817 10.2929C8.1687 10.6834 8.1687 11.3166 7.77817 11.7071L4.94975 14.5355C4.55922 14.9261 4.55922 15.5592 4.94975 15.9497L6.36396 17.364C6.75449 17.7545 7.38765 17.7545 7.77817 17.364L10.6066 14.5355C10.9971 14.145 11.6303 14.145 12.0208 14.5355L14.8492 17.364C15.2398 17.7545 15.8729 17.7545 16.2635 17.364L17.6777 15.9497C18.0682 15.5592 18.0682 14.9261 17.6777 14.5355L14.8492 11.7071C14.4587 11.3166 14.4587 10.6834 14.8492 10.2929L17.6777 7.46447C18.0682 7.07394 18.0682 6.44078 17.6777 6.05025L16.2635 4.63604C15.8729 4.24551 15.2398 4.24552 14.8492 4.63604L12.0208 7.46447Z" fill="#1D8AED"/>
</svg>
