<svg width="23" height="23" viewBox="0 0 23 23" fill="none" xmlns="http://www.w3.org/2000/svg">
<path fill-rule="evenodd" clip-rule="evenodd" d="M12.0208 7.71929C11.6303 8.10981 10.9971 8.10981 10.6066 7.71929L7.77817 4.89086C7.38765 4.50034 6.75449 4.50034 6.36396 4.89086L4.94975 6.30507C4.55922 6.6956 4.55922 7.32876 4.94975 7.71929L7.77817 10.5477C8.1687 10.9382 8.1687 11.5714 7.77817 11.9619L4.94975 14.7904C4.55922 15.1809 4.55922 15.814 4.94975 16.2046L6.36396 17.6188C6.75449 18.0093 7.38765 18.0093 7.77817 17.6188L10.6066 14.7904C10.9971 14.3998 11.6303 14.3998 12.0208 14.7904L14.8492 17.6188C15.2398 18.0093 15.8729 18.0093 16.2635 17.6188L17.6777 16.2046C18.0682 15.814 18.0682 15.1809 17.6777 14.7904L14.8492 11.9619C14.4587 11.5714 14.4587 10.9382 14.8492 10.5477L17.6777 7.71929C18.0682 7.32876 18.0682 6.6956 17.6777 6.30507L16.2635 4.89086C15.8729 4.50034 15.2398 4.50034 14.8492 4.89086L12.0208 7.71929Z" fill="#B9F000"/>
</svg>
