<svg width="50" height="50" viewBox="0 0 50 50" fill="none" xmlns="http://www.w3.org/2000/svg">
<path fill-rule="evenodd" clip-rule="evenodd" d="M50 25C50 38.8071 38.8071 50 25 50C11.1929 50 0 38.8071 0 25C0 11.1929 11.1929 0 25 0C38.8071 0 50 11.1929 50 25ZM24.9005 44.6054C24.9197 44.6252 24.9367 44.6429 24.9774 44.6429L24.9775 44.6428H25.0242C25.0475 44.6428 25.0863 44.6197 25.0863 44.5812L37.3271 27.6967C37.3737 27.6504 37.3737 27.6119 37.3271 27.5657C37.3038 27.5195 37.2416 27.5195 37.195 27.5426L24.9797 34.6343L12.7834 27.5657C12.7367 27.5426 12.6979 27.5426 12.6512 27.5888C12.6279 27.6119 12.6279 27.6736 12.6512 27.7198L24.892 44.5966L24.9005 44.6054ZM24.9309 32.38L24.9776 32.4031L24.9943 32.392L25.0242 32.4031L25.063 32.38L37.4359 25.3935C37.4493 25.3855 37.4609 25.3748 37.4703 25.3626C37.4748 25.3599 37.4789 25.3574 37.4825 25.355C37.5058 25.3088 37.5058 25.2703 37.4825 25.2241L25.133 5.41243C25.0886 5.36845 25.0513 5.34539 25.0076 5.36317C24.9479 5.35364 24.9134 5.3701 24.892 5.41255L12.5495 25.1803C12.524 25.1884 12.5079 25.2156 12.5044 25.2488C12.4924 25.2795 12.507 25.3083 12.5234 25.3405L12.5269 25.3474C12.5482 25.3685 12.5824 25.3896 12.6059 25.3931L24.9309 32.38Z" fill="#1D8AED"/>
</svg>
