<svg width="21" height="22" viewBox="0 0 21 22" fill="none" xmlns="http://www.w3.org/2000/svg">
<path fill-rule="evenodd" clip-rule="evenodd" d="M21 11C21 16.799 16.299 21.5 10.5 21.5C4.70101 21.5 0 16.799 0 11C0 5.20101 4.70101 0.5 10.5 0.5C16.299 0.5 21 5.20101 21 11ZM10.4582 19.2343C10.4663 19.2426 10.4734 19.25 10.4905 19.25L10.4906 19.25H10.5102C10.5199 19.25 10.5363 19.2403 10.5363 19.2241L15.6774 12.1326C15.697 12.1132 15.697 12.097 15.6774 12.0776C15.6676 12.0582 15.6415 12.0582 15.6219 12.0679L10.4915 15.0464L5.36901 12.0776C5.34942 12.0679 5.3331 12.0679 5.31352 12.0873C5.30372 12.097 5.30372 12.1229 5.31352 12.1423L10.4546 19.2306L10.4582 19.2343ZM10.471 14.0996L10.4906 14.1093L10.4976 14.1046L10.5102 14.1093L10.5265 14.0996L15.7231 11.1653C15.7287 11.1619 15.7336 11.1574 15.7375 11.1523C15.7394 11.1512 15.7411 11.1501 15.7427 11.1491C15.7524 11.1297 15.7524 11.1135 15.7427 11.0941L10.5559 2.77322C10.5372 2.75475 10.5215 2.74507 10.5032 2.75253C10.4781 2.74853 10.4636 2.75544 10.4546 2.77327L5.27079 11.0757C5.26008 11.0791 5.25331 11.0905 5.25185 11.1045C5.2468 11.1174 5.25295 11.1295 5.25983 11.143L5.26131 11.1459C5.27024 11.1548 5.28461 11.1636 5.2945 11.1651L10.471 14.0996Z" fill="#182129"/>
</svg>
