<svg width="16" height="16" viewBox="0 0 16 16" fill="none" xmlns="http://www.w3.org/2000/svg">
<path fill-rule="evenodd" clip-rule="evenodd" d="M8 16C12.4183 16 16 12.4183 16 8C16 3.58172 12.4183 0 8 0C3.58172 0 0 3.58172 0 8C0 12.4183 3.58172 16 8 16ZM9.14286 2.85714C9.14286 3.48833 8.63118 4 8 4C7.36882 4 6.85714 3.48833 6.85714 2.85714C6.85714 2.22596 7.36882 1.71429 8 1.71429C8.63118 1.71429 9.14286 2.22596 9.14286 2.85714ZM9.14286 13.2857C9.14286 13.838 8.69514 14.2857 8.14286 14.2857H7.85714C7.30486 14.2857 6.85714 13.838 6.85714 13.2857V6.71428C6.85714 6.162 7.30486 5.71429 7.85714 5.71429H8.14286C8.69514 5.71429 9.14286 6.162 9.14286 6.71429V13.2857Z" fill="#AFAFAF"/>
</svg>
