<svg width="28" height="28" viewBox="0 0 28 28" fill="none" xmlns="http://www.w3.org/2000/svg">
<path fill-rule="evenodd" clip-rule="evenodd" d="M14 28C21.732 28 28 21.732 28 14C28 6.26801 21.732 0 14 0C6.26801 0 0 6.26801 0 14C0 21.732 6.26801 28 14 28ZM21.2597 6.74037C19.0728 4.55344 15.5271 4.55344 13.3401 6.74037L12.0202 8.0603L14.0001 10.0402L15.32 8.72027C16.4135 7.6268 18.1864 7.6268 19.2798 8.72027C20.3733 9.81374 20.3733 11.5866 19.2798 12.6801L17.9599 14L19.9398 15.9799L21.2597 14.66C23.4467 12.473 23.4467 8.92731 21.2597 6.74037ZM15.98 19.9397L14.0001 17.9598L12.6802 19.2797C11.5867 20.3732 9.81384 20.3732 8.72037 19.2797C7.6269 18.1863 7.6269 16.4134 8.72037 15.3199L10.0403 14L8.06041 12.0201L6.74047 13.34C4.55354 15.527 4.55354 19.0727 6.74047 21.2596C8.92741 23.4466 12.4731 23.4466 14.6601 21.2596L15.98 19.9397ZM14.0001 11.3601C14.7291 10.6312 15.911 10.6312 16.64 11.3601C17.3689 12.0891 17.3689 13.271 16.64 14L14.0001 16.6399C13.2711 17.3688 12.0892 17.3688 11.3602 16.6399C10.6313 15.9109 10.6313 14.729 11.3602 14L14.0001 11.3601Z" fill="#1D8AED"/>
</svg>
