<svg width="285" height="285" viewBox="0 0 285 285" fill="none" xmlns="http://www.w3.org/2000/svg">
<g clip-path="url(#clip0_6_94)">
<path d="M135.417 0.26594C90.2196 2.4048 48.8414 25.9246 23.6056 63.8124C10.8566 82.9976 3.1312 104.55 0.5358 128.244C-0.1786 134.885 -0.1786 150.396 0.5358 157.037C4.1002 189.709 17.7308 218.874 40.2306 241.964C49.1834 251.143 58.881 258.787 69.8858 265.37C75.7036 268.85 88.3082 274.864 92.2146 276.061L92.8416 276.232L92.872 225.116C92.872 176.936 92.9024 174.026 93.3584 174.71C101.772 187.053 113.692 195.635 127.38 199.229C151.905 205.642 177.255 196.008 191.341 174.911C197.672 165.418 200.921 154.469 200.921 142.639C200.921 137.278 200.408 133.118 199.181 128.271C198.725 126.447 198.352 124.935 198.352 124.878C198.352 124.677 233.711 124.848 233.825 125.049C233.913 125.193 234.255 127.131 234.623 129.41C235.167 133.004 235.25 134.6 235.281 142.494C235.281 149.735 235.167 152.129 234.768 154.894C231.633 175.736 223.163 193.04 209.076 207.465C193.933 222.947 175.655 232.041 153.725 235.035C147.508 235.89 132.339 235.662 129.002 234.693C128.516 234.549 128.489 235.863 128.489 259.467V284.411L129.432 284.582C129.918 284.696 134.592 284.84 139.756 284.924C147.17 285.068 150.279 285.011 154.443 284.639C172.55 283.07 188.636 278.652 204.489 270.955C211.364 267.619 214.871 265.595 221.456 261.207C237.625 250.459 250.8 237.258 261.524 221.036C283.423 187.965 290.438 146.628 280.744 107.969C270.647 67.7141 243.759 34.1306 206.602 15.3443C202.095 13.0649 193.029 9.07211 192.345 9.07211C192.2 9.07211 192.086 28.8841 192.086 59.8766V110.708L191.486 109.739C189.149 105.917 183.187 99.36 179.109 96.1688C170.24 89.2128 160.459 85.1364 149.595 83.7688C146.114 83.3395 137.989 83.4269 134.509 83.9132C124.442 85.3378 115.459 89.0722 107.19 95.2305C98.7772 101.503 91.9904 110.453 88.0004 120.517C83.638 131.523 82.8096 144.607 85.747 156.182C86.203 157.979 86.5754 159.487 86.5754 159.548C86.5754 159.579 78.5916 159.579 68.837 159.548L51.072 159.461L50.73 157.466C48.849 146.29 49.191 132.833 51.6724 121.774C53.3824 114.078 55.4078 108.375 59.2002 100.735C73.2868 72.1399 100.464 53.0954 132.343 49.4179C137.503 48.8176 147.6 48.8176 152.448 49.3875C154.417 49.6458 156.1 49.8434 156.241 49.8434C156.355 49.8434 156.442 38.811 156.442 25.3548V0.862389L155.671 0.691433C154.759 0.490084 142.926 -0.0797722 141.185 0.00760572C140.558 0.00760572 137.963 0.151969 135.424 0.26594H135.417Z" fill="white"/>
</g>
<defs>
<clipPath id="clip0_6_94">
<rect width="285" height="285" fill="white"/>
</clipPath>
</defs>
</svg>
