<svg width="22" height="22" viewBox="0 0 22 22" fill="none" xmlns="http://www.w3.org/2000/svg">
<path d="M14.0539 0.952604V4.87104C14.0539 6.14084 13.024 7.17007 11.7542 7.1692H11.7206V7.16889C11.0831 7.16453 10.5109 7.1692 10.5109 7.1692C10.4016 7.1692 10.2827 7.15713 10.1776 7.16802C9.46074 7.24166 8.84058 7.56701 8.31695 8.14388C8.30233 8.15993 8.28871 8.17666 8.27434 8.19289C7.85415 8.73891 7.62178 9.44254 7.62178 10.2027V10.24C7.62178 10.7289 7.72111 11.194 7.90322 11.61C8.0857 12.0266 7.99266 12.5105 7.64392 12.8024C7.30159 13.089 6.89576 13.426 6.62185 13.645C5.82891 12.7444 5.36343 11.566 5.36343 10.2774V10.24C5.36343 7.44056 7.60312 5.10739 10.6453 5.10739H11.7446V0.529171C11.4983 0.511942 11.2506 0.5 11 0.5C5.20098 0.5 0.5 5.20099 0.5 11C0.5 15.7366 3.63687 19.7392 7.94601 21.0474V17.1596C7.94601 15.8766 8.9863 14.8366 10.2694 14.8368L10.2794 14.8369V14.837C10.9169 14.8416 11.4891 14.8369 11.4891 14.8369C11.5984 14.8369 11.7172 14.8489 11.8223 14.838C12.5392 14.7643 13.1594 14.439 13.6829 13.862C13.6976 13.846 13.7113 13.8293 13.7256 13.813C14.1456 13.2671 14.378 12.5636 14.378 11.8033V11.7659C14.378 11.3847 14.2178 10.8768 14.0572 10.4636C13.8793 10.0059 14.0162 9.48042 14.3926 9.16521C14.7181 8.89343 15.0466 8.62532 15.3781 8.36094C16.171 9.26149 16.6365 10.4399 16.6365 11.7285V11.7659C16.6365 14.5655 14.3969 16.8985 11.3547 16.8985H10.2552V21.4708C10.5015 21.4881 10.7493 21.5 11 21.5C16.799 21.5 21.5 16.799 21.5 11C21.5 6.26343 18.3631 2.26078 14.0539 0.952604Z" fill="white"/>
</svg>
