<svg width="50" height="50" viewBox="0 0 50 50" fill="none" xmlns="http://www.w3.org/2000/svg">
<path d="M32.2713 1.07763V10.4072C32.2713 13.4306 29.8191 15.8811 26.7956 15.879H26.7157V15.8783C25.1978 15.8679 23.8354 15.879 23.8354 15.879C23.5752 15.879 23.292 15.8503 23.0419 15.8762C21.3351 16.0516 19.8585 16.8262 18.6118 18.1997C18.577 18.2379 18.5445 18.2778 18.5103 18.3164C17.5099 19.6165 16.9566 21.2918 16.9566 23.1017V23.1904C16.9566 24.3545 17.1931 25.4619 17.6267 26.4524C18.0612 27.4443 17.8397 28.5964 17.0093 29.2914C16.1943 29.9738 15.228 30.7761 14.5758 31.2975C12.6879 29.1532 11.5796 26.3476 11.5796 23.2795V23.1904C11.5796 16.5251 16.9122 10.97 24.1554 10.97H26.7728V0.0694504C26.1865 0.0284309 25.5967 0 24.9999 0C11.1928 0 0 11.1928 0 25C0 36.2775 7.46873 45.8077 17.7286 48.9224V39.6658C17.7286 36.6109 20.2055 34.1347 23.2604 34.1353L23.2842 34.1355V34.1358C24.8021 34.1466 26.1645 34.1355 26.1645 34.1355C26.4247 34.1355 26.7075 34.1641 26.9579 34.138C28.6648 33.9625 30.1413 33.1882 31.3878 31.8144C31.4229 31.7762 31.4555 31.7363 31.4895 31.6977C32.4895 30.3979 33.0429 28.7228 33.0429 26.9125V26.8237C33.0429 25.9159 32.6615 24.7066 32.2791 23.7228C31.8554 22.6331 32.1814 21.3819 33.0777 20.6314C33.8526 19.9844 34.6348 19.346 35.424 18.7165C37.312 20.8607 38.4202 23.6665 38.4202 26.7345V26.8237C38.4202 33.4894 33.0878 39.0441 25.8445 39.0441H23.2266V49.9305C23.8132 49.9716 24.403 50 24.9999 50C38.807 50 50 38.8072 50 25C50 13.7225 42.5311 4.19234 32.2713 1.07763Z" fill="#1D8AED"/>
</svg>
