<svg width="278" height="48" viewBox="0 0 278 48" fill="none" xmlns="http://www.w3.org/2000/svg">
<g filter="url(#filter0_d_719_688)">
<path d="M4 38.4574V37.4468H16.4064C19.6506 37.4468 21.2727 35.8688 21.2727 32.7128C21.2727 29.5213 19.9893 27.7128 17.4225 27.2872L10.6845 26.1702C6.22816 25.4255 4 23.1206 4 19.2553C4 14.539 6.56685 12.1809 11.7005 12.1809H20.9519L22.4492 13.2979V14.3085H11.3262C8.04635 14.3085 6.40642 15.8865 6.40642 19.0426C6.40642 21.7731 7.76114 23.3688 10.4706 23.8298L17.2086 24.9468C21.5579 25.656 23.7326 28.156 23.7326 32.4468C23.7326 37.1986 21.148 39.5745 15.9786 39.5745H5.49733L4 38.4574Z" fill="#989898"/>
<path d="M31.2255 31.9681V19.7872C31.2255 14.7163 33.7745 12.1809 38.8726 12.1809H45.8244C50.8868 12.1809 53.418 14.7163 53.418 19.7872V26.8617H33.6319V32.5C33.6319 35.7979 35.2897 37.4468 38.6052 37.4468H52.3485V38.4574L50.8512 39.5745H38.8726C33.7745 39.5745 31.2255 37.039 31.2255 31.9681ZM33.6319 24.734H51.0116V19.2553C51.0116 15.9575 49.3539 14.3085 46.0384 14.3085H38.6052C35.2897 14.3085 33.6319 15.9575 33.6319 19.2553V24.734Z" fill="#989898"/>
<path d="M62.0991 39.5745V12.1809H76.698C81.7604 12.1809 84.2916 14.7163 84.2916 19.7872V39.5745H81.8852V19.2553C81.8852 15.9575 80.2274 14.3085 76.9119 14.3085H64.5055V39.5745H62.0991Z" fill="#989898"/>
<path d="M92.7437 31.9681V19.7872C92.7437 14.7163 95.2928 12.1809 100.391 12.1809H112.53V0.212776H114.936V39.5745H100.391C95.2928 39.5745 92.7437 37.039 92.7437 31.9681ZM95.1501 32.5C95.1501 35.7979 96.8079 37.4468 100.123 37.4468H112.53V14.3085H100.123C96.8079 14.3085 95.1501 15.9575 95.1501 19.2553V32.5Z" fill="#989898"/>
<path d="M254.267 38.4574V37.4468H266.674C269.918 37.4468 271.54 35.8688 271.54 32.7128C271.54 29.5213 270.257 27.7128 267.69 27.2872L260.952 26.1702C256.496 25.4255 254.267 23.1206 254.267 19.2553C254.267 14.539 256.834 12.1808 261.968 12.1808H271.219L272.717 13.2979V14.3085H261.594C258.314 14.3085 256.674 15.8865 256.674 19.0425C256.674 21.773 258.029 23.3688 260.738 23.8298L267.476 24.9468C271.825 25.656 274 28.156 274 32.4468C274 37.1986 271.415 39.5745 266.246 39.5745H255.765L254.267 38.4574Z" fill="white"/>
<path d="M126.674 39.5745V12.1808H141.273C146.335 12.1808 148.866 14.7163 148.866 19.7872V39.5745H146.46V19.2553C146.46 15.9574 144.802 14.3085 141.487 14.3085H129.08V39.5745H126.674Z" fill="white"/>
<path d="M157.318 31.9681V19.7872C157.318 14.7163 159.867 12.1808 164.965 12.1808H172.452C177.515 12.1808 180.046 14.7163 180.046 19.7872V31.9681C180.046 37.039 177.515 39.5745 172.452 39.5745H164.965C159.867 39.5745 157.318 37.039 157.318 31.9681ZM159.725 32.5C159.725 35.7979 161.383 37.4468 164.698 37.4468H172.666C175.982 37.4468 177.639 35.7979 177.639 32.5V19.2553C177.639 15.9574 175.982 14.3085 172.666 14.3085H164.698C161.383 14.3085 159.725 15.9574 159.725 19.2553V32.5Z" fill="white"/>
<ellipse cx="199.561" cy="26.383" rx="11.123" ry="4.25532" fill="#41AFFF"/>
<ellipse cx="230.791" cy="16.5957" rx="11.123" ry="4.25532" fill="#71E7FF"/>
<path d="M210.649 -1.52588e-05V20.6689C209.997 20.1239 209.181 19.642 208.237 19.2439V-1.52588e-05H210.649Z" fill="white"/>
<path fill-rule="evenodd" clip-rule="evenodd" d="M241.564 25.1064C240.329 26.9417 235.974 28.2979 230.791 28.2979C225.609 28.2979 221.254 26.9417 220.019 25.1064C219.79 25.4464 219.668 25.8029 219.668 26.1702C219.668 28.5204 224.648 30.4255 230.791 30.4255C236.935 30.4255 241.914 28.5204 241.914 26.1702C241.914 25.8029 241.793 25.4464 241.564 25.1064Z" fill="white"/>
<path d="M220.019 34.8936C221.254 36.6555 225.609 37.8723 230.791 37.8723C235.974 37.8723 240.329 36.6555 241.564 34.8936C241.793 35.22 241.914 35.5622 241.914 35.9149C241.914 38.171 236.935 40 230.791 40C224.648 40 219.668 38.171 219.668 35.9149C219.668 35.5622 219.79 35.22 220.019 34.8936Z" fill="white"/>
<path d="M188.789 34.8936C190.024 36.6555 194.379 37.8723 199.562 37.8723C204.744 37.8723 209.099 36.6555 210.334 34.8936C210.563 35.22 210.684 35.5622 210.684 35.9149C210.684 38.171 205.705 40 199.562 40C193.418 40 188.439 38.171 188.439 35.9149C188.439 35.5622 188.56 35.22 188.789 34.8936Z" fill="white"/>
</g>
<defs>
<filter id="filter0_d_719_688" x="0" y="-1.52588e-05" width="278" height="48" filterUnits="userSpaceOnUse" color-interpolation-filters="sRGB">
<feFlood flood-opacity="0" result="BackgroundImageFix"/>
<feColorMatrix in="SourceAlpha" type="matrix" values="0 0 0 0 0 0 0 0 0 0 0 0 0 0 0 0 0 0 127 0" result="hardAlpha"/>
<feOffset dy="4"/>
<feGaussianBlur stdDeviation="2"/>
<feComposite in2="hardAlpha" operator="out"/>
<feColorMatrix type="matrix" values="0 0 0 0 0 0 0 0 0 0 0 0 0 0 0 0 0 0 0.25 0"/>
<feBlend mode="normal" in2="BackgroundImageFix" result="effect1_dropShadow_719_688"/>
<feBlend mode="normal" in="SourceGraphic" in2="effect1_dropShadow_719_688" result="shape"/>
</filter>
</defs>
</svg>
